<svg xmlns="http://www.w3.org/2000/svg" width="51.045" height="38.846" viewBox="0 0 51.045 38.846"><g transform="translate(9666 664)"><g transform="translate(-9666 -664)"><g transform="translate(0 0)"><path d="M44.813,57.75H6.242A6.247,6.247,0,0,0,0,63.992V90.354A6.247,6.247,0,0,0,6.242,96.6H44.8a6.247,6.247,0,0,0,6.242-6.242V64A6.241,6.241,0,0,0,44.813,57.75Zm3.39,32.6a3.394,3.394,0,0,1-3.39,3.39H6.242a3.394,3.394,0,0,1-3.39-3.39V64a3.394,3.394,0,0,1,3.39-3.39H44.8A3.394,3.394,0,0,1,48.193,64V90.354Z" transform="translate(0 -57.75)" fill="#003d47"/><path d="M82.056,122.6,94.54,111.4a1.428,1.428,0,1,0-1.912-2.123L75.413,124.729l-3.359-3c-.011-.011-.021-.021-.021-.032a2.112,2.112,0,0,0-.232-.2l-13.667-12.23a1.429,1.429,0,1,0-1.9,2.133l12.632,11.29L56.285,134.467a1.432,1.432,0,0,0-.063,2.017,1.459,1.459,0,0,0,1.046.454,1.429,1.429,0,0,0,.972-.38l12.769-11.945,3.464,3.095a1.422,1.422,0,0,0,1.9-.011l3.559-3.19,12.7,12.061a1.43,1.43,0,0,0,2.017-.053,1.432,1.432,0,0,0-.053-2.017Z" transform="translate(-49.864 -103.5)" fill="#003d47"/></g></g></g></svg>