<svg xmlns="http://www.w3.org/2000/svg" width="50" height="50" viewBox="0 0 50 50"><path d="M25,10.227a3.5,3.5,0,0,0,3.409-3.409A5.349,5.349,0,0,0,27.955,5L25,0,22.045,5a4.282,4.282,0,0,0-.455,1.818A3.5,3.5,0,0,0,25,10.227Zm14.773,5.682h-12.5V12.5H22.727v3.409h-12.5A10.185,10.185,0,0,0,0,26.136a9.939,9.939,0,0,0,4.545,8.409V50H45.455V34.545a10.166,10.166,0,0,0-5.682-18.636Zm0,15.909a6.534,6.534,0,0,1-4.091-1.591l-3.409-3.409-3.409,3.409A5.483,5.483,0,0,1,25,31.818a6.534,6.534,0,0,1-4.091-1.591L17.5,26.818l-3.409,3.409a5.483,5.483,0,0,1-3.864,1.591,5.682,5.682,0,0,1,0-11.364H39.773a5.682,5.682,0,0,1,0,11.364Z" fill="#003d47"/></svg>