<svg xmlns="http://www.w3.org/2000/svg" width="49.928" height="49.916" viewBox="0 0 49.928 49.916"><g transform="translate(0.008)"><path d="M38.363,33.125c-.485.751-1.7,1.173-3.425,1.173H23.9c-4.77,0-6.458-1.689-6.458-6.458V23.9c0-4.77,1.689-6.458,6.458-6.458h3.8c3.644,0,5.379,1.126,6.881,4.441.063.125.109.25.172.375l3.284,7.272C38.739,31.092,38.848,32.374,38.363,33.125Z" transform="translate(9.837 9.832)" fill="none"/><path d="M39.836,29.452c-1.142-2.549-2.3-5.1-3.44-7.647-1.72-3.831-3.972-5.286-8.179-5.286h-3.8c-5.583,0-7.9,2.314-7.9,7.881v3.941c0,5.583,2.314,7.9,7.9,7.9h11.04C40.055,36.255,41.728,33.643,39.836,29.452Z" transform="translate(9.318 9.314)" fill="none"/><path d="M20.573,27.7c0,3.644-1.126,5.379-4.441,6.881-1.626.735-3.268,1.47-4.895,2.2-.923.407-1.83.829-2.752,1.235a6.216,6.216,0,0,1-2.455.641c-1.548,0-2.33-1.251-2.33-3.722V23.9c0-4.77,1.689-6.458,6.458-6.458H14.1c4.77,0,6.458,1.689,6.458,6.458C20.573,25.165,20.573,26.432,20.573,27.7Z" transform="translate(2.09 9.832)" fill="none"/><path d="M14.618,16.52H10.677c-5.583,0-7.9,2.314-7.9,7.9v11.04C2.78,38.8,4.156,40.6,6.533,40.6a7.458,7.458,0,0,0,3.034-.766c2.549-1.142,5.1-2.3,7.647-3.44,3.831-1.72,5.286-3.972,5.286-8.179v-3.8C22.515,18.834,20.2,16.52,14.618,16.52Z" transform="translate(1.572 9.314)" fill="none"/><path d="M17.43,11.872c0-3.644,1.126-5.379,4.441-6.881,1.626-.735,3.268-1.47,4.895-2.2.923-.407,1.83-.829,2.752-1.235A6.216,6.216,0,0,1,31.973.91c1.548,0,2.33,1.251,2.33,3.722v11.04c0,4.77-1.689,6.458-6.458,6.458H23.9c-4.77,0-6.458-1.689-6.458-6.458C17.43,14.405,17.43,13.139,17.43,11.872Z" transform="translate(9.831 0.513)" fill="none"/><path d="M24.411,24.082h3.941c5.583,0,7.9-2.314,7.9-7.9V5.145C36.249,1.8,34.873,0,32.5,0a7.459,7.459,0,0,0-3.034.766Q25.639,2.5,21.816,4.207c-3.831,1.72-5.286,3.972-5.286,8.179v3.8C16.514,21.768,18.829,24.082,24.411,24.082Z" transform="translate(9.324)" fill="none"/><path d="M22.144,14.1c0,4.77-1.689,6.458-6.458,6.458h-3.8c-3.644,0-5.379-1.126-6.881-4.441L3.457,12.692C2.816,11.284,2.19,9.877,1.549,8.47.845,6.906.72,5.623,1.2,4.857,1.69,4.107,2.909,3.7,4.63,3.7H15.67c4.77,0,6.458,1.689,6.458,6.458C22.144,11.472,22.144,12.786,22.144,14.1Z" transform="translate(0.52 2.086)" fill="none"/><path d="M16.19,2.79H5.149c-4.6,0-6.286,2.6-4.394,6.787,1.142,2.549,2.3,5.1,3.44,7.647,1.72,3.831,3.972,5.286,8.179,5.286h3.8c5.583,0,7.9-2.314,7.9-7.9V10.671C24.087,5.089,21.772,2.79,16.19,2.79Z" transform="translate(0 1.573)" fill="none"/><path d="M16.184,2.79c5.583,0,7.9,2.314,7.9,7.9v3.941c0,5.583-2.314,7.9-7.9,7.9h-3.8c-4.207,0-6.443-1.454-8.179-5.286-1.142-2.549-2.3-5.1-3.44-7.647C-1.127,5.4.562,2.806,5.159,2.806Q10.672,2.782,16.184,2.79Zm6.474,11.822V10.671c0-4.77-1.689-6.458-6.458-6.458H5.159c-1.72,0-2.94.422-3.425,1.173S1.359,7.419,2.079,9c.641,1.407,1.267,2.815,1.908,4.222l1.548,3.425c1.5,3.315,3.237,4.441,6.881,4.441h3.8C20.969,21.086,22.658,19.4,22.658,14.612Z" transform="translate(0.006 1.573)" fill="#003d47"/><path d="M24.417,24.082c-5.583,0-7.9-2.314-7.9-7.9v-3.8c0-4.207,1.454-6.443,5.286-8.179q3.823-1.736,7.647-3.44A7.523,7.523,0,0,1,32.5,0c2.377,0,3.753,1.8,3.753,5.145v11.04c0,5.583-2.314,7.9-7.9,7.9Zm-6.474-11.7v3.8c0,4.77,1.689,6.458,6.458,6.458h3.941c4.77,0,6.458-1.689,6.458-6.458V5.145c0-2.471-.782-3.722-2.33-3.722a6.216,6.216,0,0,0-2.455.641c-.923.407-1.83.829-2.752,1.235-1.626.735-3.268,1.47-4.895,2.2C19.069,7.006,17.943,8.742,17.943,12.385Z" transform="translate(9.318 0)" fill="#003d47"/><path d="M14.612,16.52c5.583,0,7.9,2.314,7.9,7.9v3.8c0,4.207-1.454,6.443-5.286,8.179q-3.823,1.736-7.647,3.44a7.518,7.518,0,0,1-3.034.766c-2.377,0-3.753-1.8-3.753-5.145V24.417c0-5.583,2.314-7.9,7.9-7.9Zm6.474,11.7v-3.8c0-4.77-1.689-6.458-6.458-6.458H10.687c-4.77,0-6.458,1.689-6.458,6.458v11.04c0,2.471.782,3.722,2.33,3.722a6.216,6.216,0,0,0,2.455-.641c.923-.407,1.83-.829,2.752-1.235,1.626-.735,3.268-1.47,4.895-2.2C19.96,33.6,21.086,31.861,21.086,28.217Z" transform="translate(1.577 9.314)" fill="#003d47"/><path d="M39.842,29.452c1.892,4.191.2,6.787-4.394,6.787H24.407c-5.583,0-7.9-2.314-7.9-7.9V24.4c0-5.583,2.314-7.881,7.9-7.881h3.8c4.207,0,6.443,1.454,8.179,5.286Q38.121,25.629,39.842,29.452Zm-.954,4.191c.485-.751.375-2.033-.344-3.612L35.26,22.759c-.063-.125-.109-.25-.172-.375-1.5-3.315-3.237-4.441-6.881-4.441h-3.8c-4.77,0-6.458,1.689-6.458,6.458v3.941c0,4.77,1.689,6.458,6.458,6.458h11.04C37.183,34.816,38.4,34.41,38.888,33.643Z" transform="translate(9.312 9.314)" fill="#003d47"/></g></svg>