<svg xmlns="http://www.w3.org/2000/svg" width="51.454" height="55.745" viewBox="0 0 51.454 55.745"><g transform="translate(-18.283)"><path d="M68.1,31.156a9.683,9.683,0,0,0,1.641-5.46,8.693,8.693,0,0,0-8.575-8.543h-5.9a14.709,14.709,0,0,0,1.609-6.432A13.9,13.9,0,0,0,55.7,4.489a7.363,7.363,0,0,0-3.417-3.4A11.443,11.443,0,0,0,47.226,0a4.249,4.249,0,0,0-3.015,1.24,8.055,8.055,0,0,0-2.077,3.618Q41.5,7.068,41.113,9.1a5.686,5.686,0,0,1-1.189,2.864q-1.642,1.775-3.585,4.288-3.383,4.388-4.589,5.193H22.571a4.289,4.289,0,0,0-4.288,4.288v21.44a4.29,4.29,0,0,0,4.288,4.288h9.647a24.772,24.772,0,0,1,4.623,1.34q4.121,1.441,7.253,2.194a27.033,27.033,0,0,0,6.348.754h4.321a10.678,10.678,0,0,0,7.6-2.7,9.487,9.487,0,0,0,2.848-7.353,9.429,9.429,0,0,0,2.01-5.963,10.132,10.132,0,0,0-.1-1.441A9.62,9.62,0,0,0,68.4,33.467,8.748,8.748,0,0,0,68.1,31.156ZM26.223,46.532a2.1,2.1,0,1,1,.637-1.508A2.062,2.062,0,0,1,26.223,46.532ZM64.731,28.444q-.72,1.541-1.792,1.574a4.525,4.525,0,0,1,.838,1.591,6.023,6.023,0,0,1,.334,1.86,5.294,5.294,0,0,1-1.775,3.986,4.632,4.632,0,0,1,.6,2.311,5.643,5.643,0,0,1-.586,2.462,3.735,3.735,0,0,1-1.591,1.758,11.455,11.455,0,0,1,.167,1.876q0,5.594-6.433,5.594H50.444q-4.389,0-11.457-2.445-.168-.067-.972-.352t-1.19-.418q-.385-.135-1.173-.385t-1.273-.369q-.485-.117-1.105-.218a6.753,6.753,0,0,0-1.055-.1H31.147V25.73h1.072a2.88,2.88,0,0,0,1.189-.3,5.662,5.662,0,0,0,1.34-.9q.687-.6,1.29-1.19a19.06,19.06,0,0,0,1.34-1.474q.737-.888,1.156-1.424t1.055-1.374q.636-.837.771-1.005,1.842-2.278,2.579-3.048a8.507,8.507,0,0,0,1.993-3.668q.62-2.228,1.021-4.2a5.544,5.544,0,0,1,1.274-2.848q3.215,0,4.288,1.574a8.748,8.748,0,0,1,1.072,4.858A13.683,13.683,0,0,1,50.978,16.1a13.666,13.666,0,0,0-1.607,5.343H61.162a4.127,4.127,0,0,1,2.982,1.29,4.086,4.086,0,0,1,1.307,3A6.584,6.584,0,0,1,64.731,28.444Z" transform="translate(0 0)" fill="#003d47"/></g></svg>