<svg xmlns="http://www.w3.org/2000/svg" width="119.75" height="20.092" viewBox="0 0 119.75 20.092"><g transform="translate(-5.3 -42.5)"><path d="M15.882,42.5l2.679,7.367,7.9.268L20.3,55.091l2.009,7.5-6.43-4.42-6.563,4.42,2.143-7.5L5.3,50.135l7.769-.268Z" fill="#003d47"/><path d="M34.282,42.5l2.679,7.367,7.9.268L38.7,55.091l2.143,7.5-6.563-4.42-6.563,4.42,2.143-7.5L23.7,50.135l7.9-.268Z" transform="translate(6.247)" fill="#003d47"/><path d="M52.682,42.5l2.679,7.367,7.9.268L57.1,55.091l2.143,7.5-6.563-4.42-6.563,4.42,2.143-7.5L42.1,50.135l7.9-.268Z" transform="translate(12.493)" fill="#003d47"/><path d="M71.082,42.5l2.679,7.367,7.9.268L75.5,55.091l2.143,7.5-6.563-4.42-6.563,4.42,2.143-7.5L60.5,50.135l7.9-.268Z" transform="translate(18.74)" fill="#003d47"/><path d="M89.482,42.5l2.813,7.367,7.769.268L93.9,55.091l2.143,7.5-6.563-4.42-6.43,4.42,2.009-7.5L78.9,50.135l7.9-.268Z" transform="translate(24.986)" fill="#003d47"/></g></svg>