<svg xmlns="http://www.w3.org/2000/svg" width="50.901" height="50.902" viewBox="0 0 50.901 50.902"><path d="M36.854,0H14.047A14.063,14.063,0,0,0,0,14.047V36.855A14.063,14.063,0,0,0,14.047,50.9H36.854A14.063,14.063,0,0,0,50.9,36.855V14.047A14.063,14.063,0,0,0,36.854,0Zm9.531,36.855a9.542,9.542,0,0,1-9.531,9.531H14.047a9.541,9.541,0,0,1-9.53-9.531V14.047a9.542,9.542,0,0,1,9.53-9.531H36.854a9.542,9.542,0,0,1,9.531,9.531V36.855Z" fill="#003d47"/><path d="M54.084,40.97A13.116,13.116,0,1,0,67.2,54.086,13.131,13.131,0,0,0,54.084,40.97Zm0,21.715a8.6,8.6,0,1,1,8.6-8.6A8.609,8.609,0,0,1,54.084,62.685Z" transform="translate(-28.633 -28.635)" fill="#003d47"/><path d="M122.233,28.251a3.31,3.31,0,1,0,2.342.969A3.325,3.325,0,0,0,122.233,28.251Z" transform="translate(-83.116 -19.745)" fill="#003d47"/></svg>