<svg xmlns="http://www.w3.org/2000/svg" width="60.344" height="64.547" viewBox="0 0 60.344 64.547"><g transform="translate(-11.408 -11.967) rotate(19)"><g transform="translate(30.849 2.035)"><g transform="translate(0)"><path d="M75.186,38.576,57.109,20.5a4.794,4.794,0,0,0-7.363,6.072l-.025.126a33.445,33.445,0,0,1-9.176,17.145l-8.291,8.291a4.79,4.79,0,0,0,0,6.779l4.519,4.519a4.791,4.791,0,0,0,6.779,0l1.13-1.13,7.909,7.908a4.793,4.793,0,1,0,6.779-6.779L55.98,60.041l1.13-1.13a4.79,4.79,0,0,0,0-6.779l-.768-.768a33.45,33.45,0,0,1,12.647-5.4l.127-.025a4.8,4.8,0,0,0,6.07-.584h0A4.8,4.8,0,0,0,75.186,38.576Zm-33.894,22.6a1.6,1.6,0,0,1-2.26,0l-4.519-4.519a1.6,1.6,0,0,1,0-2.26l7.908-7.908L49.2,53.263ZM57.109,65.69a1.6,1.6,0,0,1-2.26,2.26l-7.908-7.908,2.26-2.26ZM51.461,55.522c.48-.48,1.2-1.216,2.334-2.185l1.055,1.055a1.6,1.6,0,0,1,0,2.26l-1.13,1.13Zm.068-4.451-6.915-6.915A36.589,36.589,0,0,0,52.393,29.34L66.345,43.292A36.587,36.587,0,0,0,51.528,51.071Zm21.4-7.976a1.6,1.6,0,0,1-2.26,0L52.59,25.018a1.6,1.6,0,1,1,2.26-2.26L72.926,40.835A1.6,1.6,0,0,1,72.926,43.095Z" transform="translate(-30.849 -19.098)" fill="#003d47"/></g></g><g transform="translate(38.565 34.602)"><g transform="translate(0)"><path d="M108.253,325.23a1.6,1.6,0,0,0-2.26,0l-2.26,2.259a1.6,1.6,0,0,0,2.26,2.26l2.26-2.26A1.6,1.6,0,0,0,108.253,325.23Z" transform="translate(-103.266 -324.762)" fill="#003d47"/></g></g><g transform="translate(62.85)"><path d="M332.792,0a1.6,1.6,0,0,0-1.6,1.6v3.2a1.6,1.6,0,0,0,3.2,0V1.6A1.6,1.6,0,0,0,332.792,0Z" transform="translate(-331.194)" fill="#003d47"/></g><g transform="translate(72.436 12.782)"><g transform="translate(0)"><path d="M425.962,119.966h-3.2a1.6,1.6,0,1,0,0,3.2h3.2a1.6,1.6,0,1,0,0-3.2Z" transform="translate(-421.169 -119.966)" fill="#003d47"/></g></g><g transform="translate(69.241 3.195)"><g transform="translate(0)"><path d="M397.1,30.459a1.6,1.6,0,0,0-2.26,0l-3.2,3.2a1.6,1.6,0,0,0,2.26,2.26l3.2-3.2A1.6,1.6,0,0,0,397.1,30.459Z" transform="translate(-391.178 -29.991)" fill="#003d47"/></g></g></g></svg>